<?xml version="1.0" standalone="no"?>
<!DOCTYPE svg PUBLIC "-//W3C//DTD SVG 20010904//EN"
 "http://www.w3.org/TR/2001/REC-SVG-20010904/DTD/svg10.dtd">
<svg version="1.0" xmlns="http://www.w3.org/2000/svg"
 width="447.000000pt" height="336.000000pt" viewBox="0 0 447.000000 336.000000"
 preserveAspectRatio="xMidYMid meet">

<g transform="translate(0.000000,336.000000) scale(0.100000,-0.100000)"
fill="#000000" stroke="none">
<path d="M2160 2550 c-94 -17 -178 -60 -222 -114 -15 -19 -28 -21 -115 -22
-76 0 -110 -5 -152 -22 -92 -36 -126 -67 -170 -152 -34 -64 -46 -80 -70 -85
-44 -9 -119 -67 -157 -121 -77 -109 -101 -236 -64 -355 12 -41 31 -91 42 -112
18 -36 21 -38 51 -30 52 13 159 8 190 -8 26 -14 34 -14 83 3 44 15 77 18 163
15 l109 -4 35 38 c42 44 102 64 162 54 53 -9 71 -8 130 6 70 16 129 -1 176
-52 32 -35 38 -38 65 -29 16 5 57 16 91 26 117 32 273 136 309 206 l16 30 -23
-16 c-30 -21 -64 -20 -100 1 -26 16 -29 22 -29 68 1 43 -8 68 -65 178 -36 70
-70 127 -76 127 -23 0 29 62 68 81 39 19 48 20 96 9 62 -15 129 -77 166 -154
26 -53 31 -132 11 -191 -15 -45 -8 -55 43 -55 23 -1 65 -11 94 -23 115 -50
173 -132 173 -245 0 -54 2 -63 16 -58 9 3 32 6 51 6 l36 0 -5 73 c-9 146 -94
264 -226 316 l-62 24 0 64 c0 80 -29 168 -80 242 -31 46 -51 64 -106 92 -66
33 -72 34 -184 35 l-117 0 -49 47 c-53 51 -124 90 -194 106 -50 12 -48 12
-110 1z m125 -135 c25 -9 49 -14 54 -11 13 8 86 -68 114 -119 30 -53 51 -153
42 -196 -10 -44 -58 -79 -111 -79 -39 0 -43 2 -41 21 2 24 -17 37 -168 119
-44 23 -89 50 -100 59 -19 15 -19 15 -4 -4 65 -79 105 -199 116 -344 6 -84 5
-90 -13 -89 -10 0 -37 -4 -60 -9 -22 -6 -55 -8 -73 -5 -18 2 -36 0 -40 -6 -3
-6 -26 28 -51 75 -48 92 -122 183 -148 183 -12 0 -13 -3 -4 -12 17 -17 15 -93
-3 -128 -11 -21 -23 -30 -39 -30 -26 0 -336 -146 -348 -163 -12 -19 -74 55
-82 96 -12 65 17 141 80 207 30 31 52 59 49 62 -7 6 56 33 102 42 30 7 32 10
30 46 -3 87 109 180 217 180 61 0 163 -27 195 -52 33 -25 37 -23 38 20 1 41
22 90 47 111 23 19 86 40 123 41 18 0 53 -7 78 -15z"/>
<path d="M375 1731 c-84 -24 -121 -46 -180 -105 -148 -149 -152 -389 -8 -516
65 -57 130 -75 273 -75 98 0 120 3 150 20 32 19 37 20 65 5 43 -22 241 -21
276 1 22 15 26 15 49 0 17 -12 45 -16 104 -15 95 2 161 2 291 1 52 0 110 0
128 0 17 1 136 1 262 0 127 0 244 1 260 2 17 2 59 -1 95 -4 36 -4 81 -3 101 2
23 7 54 7 93 0 42 -8 73 -7 116 1 43 9 70 9 106 1 39 -9 58 -8 89 3 32 11 47
11 75 1 19 -7 82 -13 140 -13 58 0 123 -1 146 -2 22 0 51 6 65 15 40 25 66 8
66 -45 1 -64 30 -123 80 -168 112 -98 286 -68 369 64 22 35 38 48 68 57 23 6
58 30 88 60 36 36 53 47 62 40 20 -17 89 -21 126 -8 29 10 42 10 75 -1 56 -20
189 -10 223 15 49 36 66 70 66 127 1 40 -5 62 -20 83 -14 19 -20 38 -17 54 8
43 -17 111 -53 146 -41 39 -122 60 -174 46 -19 -5 -50 -6 -69 -2 -48 10 -204
3 -229 -10 -12 -6 -23 -7 -26 -2 -10 15 -79 22 -115 12 -22 -7 -49 -7 -80 0
-37 8 -57 7 -92 -5 -40 -14 -50 -14 -93 -1 -61 19 -80 19 -143 0 -61 -18 -135
-81 -159 -135 -22 -50 -40 -51 -49 -2 -9 52 -40 97 -83 124 -32 20 -50 22
-147 23 -95 0 -115 -3 -143 -21 l-33 -21 -42 21 c-29 14 -61 21 -103 21 -57 0
-62 2 -73 27 -29 65 -148 95 -218 53 -23 -13 -35 -16 -45 -8 -23 18 -75 25
-115 14 -39 -11 -59 -25 -100 -74 -18 -22 -27 -25 -51 -18 -15 5 -71 8 -123 7
-72 -2 -105 -7 -135 -22 -39 -19 -42 -19 -69 -3 -44 27 -116 33 -177 15 -47
-13 -58 -13 -93 -1 -22 8 -54 14 -71 15 -17 0 -37 7 -44 15 -35 43 -146 38
-190 -8 -20 -21 -26 -22 -75 -13 -47 9 -54 13 -65 44 -28 77 -122 151 -218
171 -71 15 -116 13 -187 -8z m215 -116 c16 -8 32 -19 35 -25 4 -6 -13 0 -36
12 -66 34 -159 31 -237 -8 -33 -16 -58 -26 -56 -22 8 12 84 50 119 59 42 11
140 2 175 -16z m-101 -111 c17 -12 26 -13 34 -5 6 6 20 11 31 11 17 0 16 -3
-8 -15 -27 -14 -33 -14 -63 0 -35 17 -61 14 -100 -11 -13 -8 -23 -12 -23 -9 0
10 65 45 85 45 11 0 31 -7 44 -16z m1750 7 c9 -6 2 -9 -24 -9 -26 0 -33 3 -24
9 8 5 19 9 24 9 6 0 16 -4 24 -9z m-205 -9 c3 -5 -9 -9 -26 -10 -24 -1 -28 2
-18 8 19 12 37 13 44 2z m-1161 -101 c6 -6 -5 -6 -26 1 -29 9 -44 8 -77 -5
-48 -18 -54 -12 -7 9 33 15 93 12 110 -5z m315 11 c7 -5 -16 -7 -50 -4 -85 5
-96 10 -23 11 33 0 66 -3 73 -7z m252 -7 c42 -22 37 -27 -6 -9 -39 17 -84 12
-123 -13 -14 -9 -20 -10 -16 -3 10 16 64 39 93 40 13 0 36 -7 52 -15z m264 5
c18 -6 34 -6 51 2 20 9 28 9 38 -1 9 -10 9 -12 -3 -10 -8 2 -25 -1 -38 -5 -12
-4 -38 -2 -58 4 -31 11 -41 9 -85 -12 -30 -16 -44 -19 -36 -10 14 18 65 41 89
42 9 0 28 -4 42 -10z m226 0 c-14 -4 -32 -8 -40 -9 -13 -1 -13 0 0 9 8 5 26 9
40 9 l25 -1 -25 -8z m135 0 c8 -13 -5 -13 -25 0 -13 8 -13 10 2 10 9 0 20 -4
23 -10z m149 2 c3 -5 -9 -9 -26 -10 -24 -1 -28 2 -18 8 19 12 37 13 44 2z
m261 -6 c47 -20 45 -27 -2 -10 -52 18 -63 17 -117 -10 -40 -20 -45 -21 -30 -5
32 36 97 46 149 25z m232 3 c9 -9 20 -9 44 0 43 15 61 14 85 -4 18 -14 17 -14
-10 -5 -20 8 -39 7 -62 0 -19 -6 -44 -8 -56 -4 -13 4 -32 7 -43 5 -17 -1 -17
0 -5 8 20 14 33 14 47 0z m589 1 c39 -15 25 -21 -18 -8 -31 9 -43 8 -77 -9
-22 -11 -38 -16 -35 -11 8 13 64 37 86 38 9 0 29 -5 44 -10z m199 0 c4 -6 -7
-10 -25 -10 -18 0 -29 4 -25 10 3 6 15 10 25 10 10 0 22 -4 25 -10z m145 0
c-8 -5 -22 -10 -30 -10 -13 0 -13 1 0 10 8 5 22 10 30 10 13 0 13 -1 0 -10z
m185 0 c4 -6 -7 -10 -25 -10 -18 0 -29 4 -25 10 3 6 15 10 25 10 10 0 22 -4
25 -10z m136 -10 l24 -20 -34 17 c-28 13 -40 14 -65 5 -35 -14 -50 -7 -15 7
38 15 65 13 90 -9z m155 5 c17 -13 16 -13 -16 -4 -28 9 -44 8 -73 -4 -43 -19
-49 -14 -9 7 35 19 73 20 98 1z m-3396 -45 c0 -5 -4 -10 -10 -10 -5 0 -10 5
-10 10 0 6 5 10 10 10 6 0 10 -4 10 -10z m-135 -30 c-3 -5 -18 -9 -33 -9 l-27
1 30 8 c17 4 31 8 33 9 2 0 0 -3 -3 -9z m-152 -7 c-7 -2 -21 -2 -30 0 -10 3
-4 5 12 5 17 0 24 -2 18 -5z m965 -20 c-10 -2 -28 -2 -40 0 -13 2 -5 4 17 4
22 1 32 -1 23 -4z m-952 -91 c63 -2 114 -7 114 -10 0 -4 -52 -5 -115 -2 -106
5 -116 7 -137 30 l-23 24 24 -19 c19 -17 42 -21 137 -23z m458 8 c10 -10 -135
-1 -146 9 -4 3 25 5 65 3 40 -2 76 -8 81 -12z m761 10 c-3 -5 -18 -9 -33 -9
l-27 1 30 8 c17 4 31 8 33 9 2 0 0 -3 -3 -9z m768 -2 c-2 -5 -19 -8 -38 -8
-19 0 -36 3 -38 8 -3 4 14 7 38 7 24 0 41 -3 38 -7z m921 -9 c8 -8 -147 2
-156 10 -4 3 28 4 72 1 43 -3 81 -8 84 -11z m161 11 c-3 -5 -18 -9 -33 -9
l-27 1 30 8 c17 4 31 8 33 9 2 0 0 -3 -3 -9z m-2320 -10 c4 -6 -11 -7 -42 -3
-63 8 -67 13 -10 13 25 0 49 -4 52 -10z m293 1 c7 -4 -24 -6 -70 -4 -111 6
-121 11 -23 12 44 0 86 -3 93 -8z m327 -1 c4 -7 -3 -8 -22 -4 -38 9 -42 14
-10 14 14 0 29 -5 32 -10z m200 0 c4 -6 -6 -7 -27 -3 -44 8 -48 13 -10 13 17
0 34 -4 37 -10z m220 0 c4 -6 -6 -7 -27 -3 -44 8 -48 13 -10 13 17 0 34 -4 37
-10z m660 0 c4 -6 -6 -7 -27 -3 -44 8 -48 13 -10 13 17 0 34 -4 37 -10z m119
2 c3 -5 -8 -9 -24 -9 -16 0 -27 4 -24 9 3 4 14 8 24 8 10 0 21 -4 24 -8z
m1161 -2 c4 -6 -6 -7 -27 -3 -44 8 -48 13 -10 13 17 0 34 -4 37 -10z m-757
-91 c-42 -4 -92 -15 -110 -25 -18 -9 -28 -11 -22 -4 21 22 89 39 149 38 l60
-1 -77 -8z m227 1 c4 -6 -6 -7 -27 -3 -44 8 -48 13 -10 13 17 0 34 -4 37 -10z
m-235 -155 c-7 -8 -26 -14 -44 -14 l-31 2 30 4 c17 3 34 9 40 14 15 15 19 10
5 -6z"/>
</g>
</svg>
